<svg width="56" height="38" viewBox="0 0 56 38" fill="none" xmlns="http://www.w3.org/2000/svg">
<path d="M27.8106 0.265943C27.7839 0.265943 27.7706 0.265943 27.7572 0.265943C27.7438 0.265943 27.7171 0.265943 27.7037 0.265943C27.022 0.251986 26.407 0.698616 26.2199 1.38252C25.9793 2.2339 26.4204 3.02946 27.1022 3.32256C27.2492 3.39235 27.3294 3.55984 27.2626 3.72733L25.0837 14.7534L20.8863 7.76095C20.7793 7.63533 20.7927 7.42597 20.9263 7.32827C21.0867 7.20265 21.2204 7.03518 21.3273 6.83978C21.7283 6.07213 21.4611 5.10909 20.7258 4.67641C19.9906 4.25769 19.0682 4.53683 18.6538 5.30449C18.2528 6.07213 18.5202 7.03518 19.2554 7.46784C19.4425 7.57951 19.6297 7.63533 19.8302 7.64929C19.9906 7.66324 20.1109 7.81677 20.0841 7.98426L20.1777 15.8421L15.8199 11.8504C15.6996 11.7527 15.6728 11.5573 15.7664 11.4316C15.9402 11.1664 16.0472 10.8455 16.0472 10.5105C16.0472 9.6033 15.312 8.86357 14.4296 8.91939C13.6677 8.97522 13.0528 9.61725 13.0127 10.3989C12.9592 11.32 13.6544 12.0876 14.5366 12.0876C14.6836 12.0876 14.8306 12.0598 14.9644 12.0179C15.1114 11.976 15.2718 12.0598 15.3253 12.2133C15.8332 13.9161 16.3546 15.6188 16.8626 17.3217L17.9587 20.9645C18.0256 21.2017 18.0389 21.2436 18.1058 21.4808C17.9052 21.6064 17.7315 21.8297 17.7448 22.0671C17.7849 22.5556 18.4132 22.8766 18.9747 23.0719C19.6965 23.3093 20.4585 23.4069 21.1402 23.4768C21.2071 23.4768 21.2204 23.379 21.1535 23.3651C20.0441 23.0161 19.1083 22.5556 19.1083 22.2066C19.1083 21.3972 22.9181 20.4899 27.6235 20.4899C27.6636 20.4899 27.7037 20.4899 27.7304 20.4899C27.7706 20.4899 27.8106 20.4899 27.8374 20.4899C32.5428 20.4899 36.3525 21.3972 36.3525 22.2066C36.3525 22.5556 35.4168 23.0161 34.3073 23.3651C34.2405 23.379 34.2538 23.4907 34.3207 23.4768C35.0024 23.4209 35.7644 23.3232 36.4863 23.0719C37.0477 22.8766 37.6759 22.5556 37.7161 22.0671C37.7427 21.8158 37.5557 21.6064 37.3551 21.4808C37.4219 21.2436 37.4353 21.2017 37.5021 20.9645L38.5983 17.3217C39.1063 15.6188 39.6277 13.9161 40.1356 12.2133C40.1891 12.0598 40.3495 11.976 40.4965 12.0179C40.6302 12.0598 40.7773 12.0876 40.9243 12.0876C41.7932 12.0876 42.5017 11.32 42.4482 10.3989C42.3947 9.6033 41.7798 8.96127 41.0312 8.91939C40.1489 8.86357 39.4137 9.58933 39.4137 10.5105C39.4137 10.8594 39.5207 11.1805 39.6945 11.4316C39.7881 11.5713 39.7613 11.7527 39.641 11.8504L35.2831 15.8421L35.3767 7.98426C35.3633 7.81677 35.4703 7.66324 35.6307 7.64929C35.8312 7.62137 36.0183 7.56554 36.2055 7.46784C36.9407 7.04913 37.2081 6.07213 36.8071 5.30449C36.4061 4.53683 35.4703 4.25769 34.7351 4.67641C33.9999 5.09512 33.7325 6.07213 34.1335 6.83978C34.2405 7.03518 34.3742 7.20265 34.5346 7.32827C34.6682 7.42597 34.6816 7.63533 34.5747 7.76095L30.3772 14.7534L28.1983 3.72733C28.1314 3.57379 28.2116 3.39235 28.3587 3.32256C29.0404 3.02946 29.4816 2.2339 29.241 1.38252C29.0538 0.712572 28.4523 0.265943 27.7839 0.265943C27.824 0.265943 27.824 0.265943 27.8106 0.265943Z" fill="url(#paint0_linear_10277_1956)"/>
<path d="M13.4493 36.3788C13.4118 36.2743 13.2866 36.2351 13.2115 36.2481C13.0989 36.2613 12.8862 36.2873 12.8111 36.2613C12.7235 36.2351 12.5608 36.1175 12.4983 36.013L12.4857 35.9998C12.4482 35.9476 12.3981 35.9476 12.3731 35.9476C12.3605 35.9476 12.3481 35.9476 12.3356 35.9607L12.3231 35.9476C12.298 35.9215 12.273 35.8823 12.1729 35.5034C12.0602 35.0722 11.9851 34.7717 11.9477 34.5888C11.9226 34.4058 11.8726 34.1445 11.9101 33.7787C11.9101 33.648 11.8726 33.5435 11.7975 33.4782C11.7474 33.439 11.7224 33.3737 11.6723 33.2952C11.6598 33.2691 11.6473 33.2561 11.6348 33.2299C11.5723 33.1124 11.0842 32.3545 10.7337 32.0279C10.7337 32.0279 10.7337 32.0279 10.7337 32.0148C10.7588 31.9625 10.7964 31.8319 10.8088 31.7274C10.8839 31.6229 10.959 31.4138 10.984 31.2962C10.9966 31.2309 11.0717 31.0349 11.1092 30.9043C11.1843 31.0741 11.322 31.1133 11.4345 31.1133C11.6223 31.1133 12.3105 30.9565 12.3605 30.9043C12.3605 30.9043 12.3605 30.9043 12.3731 30.8911C12.3731 30.8911 12.3731 30.8911 12.3856 30.8911C12.4482 30.8911 12.6234 30.8781 12.6859 30.865C12.7986 30.8389 12.8612 30.7736 12.8737 30.6951C12.8737 30.669 12.8737 30.6429 12.8612 30.6298C12.8737 30.6168 12.8737 30.6037 12.8737 30.5776C12.8737 30.5515 12.8612 30.5123 12.8486 30.4861C12.8486 30.447 12.8486 30.4077 12.8236 30.3816C12.8111 30.3685 12.7986 30.3685 12.7861 30.3555C12.7861 30.3293 12.7735 30.3032 12.7485 30.277C12.7361 30.264 12.6985 30.2379 12.6359 30.251C12.6108 30.251 12.5858 30.264 12.5608 30.277C12.5358 30.2902 12.5107 30.2902 12.4983 30.2902C12.4857 30.2902 12.4857 30.2902 12.4732 30.2902C12.4232 30.2902 12.3731 30.2902 12.3231 30.3163C12.2855 30.3424 12.2229 30.4077 12.2104 30.5123C12.1604 30.5383 12.1103 30.5515 11.9851 30.5515C11.8475 30.5383 11.7348 30.5123 11.6848 30.4992C11.6848 30.4861 11.6848 30.4861 11.6848 30.473C11.7099 30.3163 11.7474 30.1203 11.7224 29.9504V29.9374C11.7975 29.7806 11.8726 29.5976 11.785 29.3494C11.7224 29.2188 11.5847 29.1534 11.5221 29.1142C11.5096 29.1142 11.5096 29.1142 11.5096 29.1011C11.4846 29.0881 11.4596 29.075 11.4471 29.0619C11.5221 29.0619 11.5972 29.075 11.6097 29.0619C11.6848 29.0619 11.7724 29.0228 11.7724 28.9443C11.7724 28.9183 11.7724 28.879 11.785 28.8529C11.7975 28.8398 11.8225 28.8268 11.8225 28.8006C11.835 28.7745 11.835 28.7483 11.8225 28.7353C11.8225 28.7353 11.8225 28.7353 11.8225 28.7223C11.835 28.6961 11.8225 28.6569 11.8225 28.6438C11.8475 28.6308 11.8726 28.6177 11.8726 28.6177C11.9351 28.5785 11.8975 28.487 11.8851 28.4609C11.8726 28.4478 11.8475 28.3695 11.835 28.3302C11.8225 28.3042 11.8225 28.291 11.8225 28.278C11.8225 28.2649 11.8225 28.2127 11.8225 28.1996C11.8225 28.1735 11.8225 28.1474 11.8225 28.1342C11.8225 28.0951 11.8099 27.9644 11.7348 27.886C11.7224 27.8076 11.6974 27.7554 11.5847 27.7162C11.5096 27.6901 11.2469 27.5856 11.0091 27.6901C10.8964 27.7292 10.7964 27.8337 10.7213 27.9514C10.6461 28.082 10.6086 28.2257 10.6461 28.3433C10.6587 28.4087 10.6712 28.4478 10.6837 28.474C10.7088 28.5523 10.7088 28.5523 10.7088 28.5785C10.7088 28.5915 10.7088 28.6177 10.7088 28.6308C10.7088 28.67 10.7088 28.7353 10.6963 28.7483C10.6837 28.7615 10.6837 28.7615 10.6712 28.7745C10.6461 28.8006 10.6461 28.8006 10.6461 28.8006C10.5836 28.8137 10.4585 28.866 10.3584 28.9574C10.1081 28.9443 9.90786 29.0358 9.75768 29.2056C9.56997 29.2318 9.24461 29.3363 9.04439 29.4931C9.03188 29.4931 9.03188 29.5062 9.01936 29.5062C8.88171 29.5715 8.76908 29.6237 8.68149 29.8589C8.6064 30.081 8.53132 30.2902 8.51881 30.6429C8.51881 30.7605 8.50629 30.865 8.50629 30.9303C8.50629 31.061 8.50629 31.1394 8.48126 31.2047C8.46875 31.2439 8.45624 31.2701 8.45624 31.2962C8.43121 31.3616 8.40618 31.4399 8.40618 31.5184C8.40618 31.6229 8.40618 31.6751 8.43121 31.7143C8.44372 31.7404 8.46875 31.7666 8.53132 31.7666C8.56886 31.8057 8.61892 31.8057 8.65646 31.8057C8.694 31.8319 8.73154 31.8319 8.76908 31.8057C8.80663 31.8057 8.84417 31.8057 8.8692 31.7797C8.89422 31.7665 8.93177 31.7274 8.94428 31.662C8.95679 31.6229 8.95679 31.5837 8.96931 31.5706C8.98182 31.5444 8.98182 31.5184 8.99433 31.4922C8.99433 31.453 8.99433 31.3484 8.91925 31.2831C8.89422 31.2571 8.8692 31.2439 8.88171 31.1394C8.88171 31.1002 8.88171 31.061 8.88171 31.0218C8.88171 30.9173 8.89422 30.8258 8.90674 30.7605C8.93177 30.669 9.08193 30.3032 9.11947 30.2117C9.1445 30.1595 9.16953 30.081 9.18204 30.0157C9.3197 30.0027 9.62003 29.9765 9.80775 29.9374C9.79522 30.055 9.78272 30.1595 9.77021 30.1856C9.73265 30.264 9.65757 30.5906 9.64506 30.8911C9.595 31.1133 9.5074 31.2962 9.38227 31.4399L9.34472 31.4791L9.36975 31.5314C9.38226 31.5575 9.39478 31.5706 9.40729 31.5837C9.34472 31.662 9.24461 31.8057 9.20707 31.9625C9.16953 32.1324 9.18204 32.4068 9.3197 32.6028C9.30718 32.642 9.29467 32.6681 9.28215 32.6943C9.24461 32.7857 9.20707 32.8903 9.15701 33.1777C9.15701 33.2038 9.15702 33.2299 9.1445 33.243C9.13199 33.3998 9.10696 33.5174 9.04439 33.5957C8.91925 33.4912 8.7816 33.3737 8.58138 33.3606C8.38115 33.3475 8.29356 33.3084 8.19345 33.2561C8.1559 33.2299 8.06831 33.1907 7.9682 33.1516C7.83054 33.0862 7.6178 32.9948 7.55523 32.9425C7.50517 32.7596 7.40506 32.5636 7.26741 32.6028C7.15478 32.6289 7.05467 32.6811 6.96708 32.7857L6.95456 32.7988C6.87948 32.8903 6.86696 32.8903 6.77937 32.9164C6.75434 32.9164 6.7168 32.9294 6.67926 32.9294C6.5416 32.9425 6.36641 32.9686 6.20373 33.0731C6.07859 33.1516 6.01602 33.2169 6.00351 33.2822C5.99099 33.3214 6.01602 33.3606 6.01602 33.3606C6.04105 33.4259 6.10362 33.439 6.20373 33.4259C6.22876 33.4259 6.24127 33.4259 6.2663 33.4129C6.34138 33.3998 6.45401 33.3867 6.50406 33.3998C6.57914 33.4259 6.69177 33.439 6.76685 33.439C6.77937 33.439 6.79188 33.439 6.80439 33.439C6.82942 33.439 6.84194 33.439 6.86696 33.439C6.91702 33.439 6.96708 33.439 6.9921 33.4521L7.00462 33.4651L7.19232 33.5174V33.5044C7.21735 33.5044 7.22987 33.4912 7.25489 33.4782C7.27992 33.4651 7.29244 33.4521 7.30495 33.439C7.36752 33.4651 7.49266 33.5044 7.55523 33.5304C7.64282 33.5697 7.90563 33.7265 8.09333 33.8702C8.28104 34.0139 8.75657 34.3405 8.90674 34.4451C9.0569 34.5496 9.19456 34.6149 9.3197 34.5758C9.45735 34.5365 9.595 34.3013 9.63254 34.236C9.64506 34.223 9.65757 34.2098 9.67008 34.1968C9.77021 34.0792 9.99545 33.8571 10.1206 33.635C10.1706 33.5435 10.2082 33.4912 10.2332 33.439C10.2457 33.4129 10.2708 33.3867 10.2833 33.3606C10.3834 33.4651 10.5085 33.5957 10.7964 33.7134C11.0591 33.831 11.1217 33.8832 11.1217 33.8963C11.1217 33.9094 11.1342 33.9225 11.1342 33.9225C11.1467 33.9355 11.1593 33.9617 11.1593 34.1707C11.1467 34.4581 11.1342 34.6541 11.372 35.0984C11.5597 35.438 11.6598 35.8039 11.7099 35.9998C11.7224 36.0391 11.7348 36.0783 11.7348 36.1045C11.7724 36.2351 11.785 36.3004 11.7975 36.4441C11.7975 36.5226 11.7975 36.5879 11.7975 36.6401C11.7975 36.7054 11.7975 36.7577 11.7975 36.7839V36.7969C11.8099 36.8753 11.8475 36.9537 11.9851 36.9799C11.9977 36.9799 12.0227 36.9929 12.0353 36.9929C12.1979 37.0059 12.2855 36.9667 12.3481 36.9537C12.3605 36.9537 12.3605 36.9537 12.3731 36.9406C12.3981 36.9406 12.4356 36.9537 12.4732 36.9537C12.4857 36.9537 12.4857 36.9537 12.4983 36.9667C12.4983 36.9667 12.8737 37.0582 13.2616 36.7577C13.4243 36.6009 13.4869 36.4833 13.4493 36.3788Z" fill="#EDEDED"/>
<path d="M17.3367 32.7952C17.5743 31.6323 17.8121 30.5086 18.0373 29.385C18.0624 29.2673 18.1 29.2282 18.2126 29.2282C18.7632 29.2412 19.3013 29.2282 19.877 29.2282C19.464 31.2795 19.0385 33.3047 18.6255 35.3691H18.4754C17.9748 35.3691 17.4618 35.3691 16.9611 35.3691C16.8486 35.3691 16.7985 35.3299 16.761 35.2254C16.4356 34.2194 16.1102 33.2263 15.7849 32.2202C15.7724 32.1679 15.7473 32.1157 15.6973 32.0634C15.4721 33.161 15.2467 34.2585 15.0215 35.3561H13.207C13.2946 34.938 13.3697 34.546 13.4573 34.1409C13.7701 32.573 14.0955 31.0182 14.4083 29.4503C14.4459 29.2805 14.4959 29.2151 14.6711 29.2282C15.1342 29.2412 15.5846 29.2412 16.0477 29.2282C16.1729 29.2282 16.2229 29.2673 16.2604 29.385C16.5983 30.4694 16.9487 31.5539 17.2865 32.6384C17.2865 32.6775 17.3116 32.7167 17.3367 32.7952Z" fill="#EDEDED"/>
<path d="M48.4864 32.4687C49.0745 32.8215 49.1247 33.3703 49.0496 33.9844C49.0245 34.2327 48.9995 34.4809 48.987 34.7292C48.987 34.9383 49.012 35.1343 49.0245 35.3563C49.012 35.3563 48.962 35.3694 48.9244 35.3694C48.3988 35.3694 47.8733 35.3694 47.3477 35.3694C47.2225 35.3694 47.1725 35.3303 47.1725 35.2126C47.1725 34.9252 47.1975 34.6377 47.2101 34.3502C47.2225 34.1935 47.2475 34.0236 47.235 33.8669C47.2225 33.5271 47.0723 33.3442 46.7595 33.3181C46.4342 33.292 46.1088 33.305 45.7584 33.305C45.6958 33.6316 45.6207 33.9714 45.5457 34.3242C45.4706 34.6639 45.408 35.0167 45.3329 35.3563H43.5059C43.556 35.1081 43.606 34.8598 43.656 34.6247C44.0065 32.8869 44.3693 31.1622 44.7198 29.4245C44.7573 29.2677 44.8073 29.2154 44.9575 29.2285C45.9836 29.2415 47.0098 29.2285 48.0359 29.2415C48.2361 29.2415 48.4364 29.2677 48.6366 29.333C49.3248 29.529 49.7128 30.1039 49.7002 30.8617C49.6878 31.5411 49.3874 32.0246 48.8118 32.3251C48.6866 32.3642 48.5991 32.4165 48.4864 32.4687ZM46.0337 31.8678C46.3466 31.8678 46.6594 31.8939 46.9472 31.8547C47.1474 31.8286 47.3602 31.7763 47.5353 31.6718C47.7731 31.5281 47.8607 31.2798 47.7982 30.9923C47.7482 30.731 47.5479 30.6265 47.3226 30.6134C46.9723 30.5874 46.6344 30.6134 46.2715 30.6134C46.1964 30.9662 46.1213 31.319 46.0462 31.6848C46.0587 31.7371 46.0463 31.7894 46.0337 31.8678Z" fill="#EDEDED"/>
<path d="M25.6373 31.2534H23.9604C23.948 31.2404 23.948 31.2273 23.9354 31.2273C23.7853 30.6132 23.2596 30.3649 22.659 30.6262C22.3962 30.7439 22.1834 30.9267 22.0333 31.162C21.6955 31.6715 21.5202 32.2464 21.5328 32.8736C21.5453 33.7621 22.3461 34.2455 23.1094 33.8405C23.3598 33.7098 23.5475 33.5138 23.6726 33.2002H22.8592C22.9468 32.756 23.0344 32.3379 23.122 31.9198H25.6623C25.6123 32.1681 25.5622 32.4163 25.5121 32.6645C25.337 33.5138 25.1618 34.3762 24.9866 35.2255C24.9616 35.33 24.924 35.3692 24.8239 35.3692C24.461 35.3692 24.1106 35.3692 23.7352 35.3692C23.7727 35.1209 23.7978 34.8988 23.8353 34.6505C23.7978 34.6767 23.7853 34.6767 23.7727 34.6897C23.1971 35.4998 22.0583 35.7611 21.0697 35.2908C20.2939 34.9119 19.8684 34.2455 19.7307 33.4093C19.5055 31.9981 19.956 30.7961 20.9571 29.8293C21.4701 29.3197 22.1334 29.1367 22.8217 29.0975C23.3597 29.0584 23.8978 29.0845 24.4234 29.2805C25.2494 29.581 25.7499 30.4041 25.6373 31.2534Z" fill="#EDEDED"/>
<path d="M43.6816 31.9477C43.6315 33.3065 43.0934 34.4302 41.8795 35.1227C41.0161 35.6192 40.0775 35.6584 39.164 35.2926C38.1754 34.9005 37.6498 34.1166 37.5872 33.0191C37.5122 31.5558 38.0253 30.3537 39.2391 29.5697C40.1026 29.0079 41.0537 28.9164 42.0172 29.243C42.9808 29.5697 43.594 30.4321 43.6565 31.5035C43.669 31.6211 43.669 31.7517 43.6816 31.9477ZM41.8795 31.7125C41.8795 31.6603 41.8795 31.6211 41.8795 31.5688C41.8295 30.8894 41.4291 30.4974 40.8534 30.5497C40.5781 30.5757 40.3278 30.6934 40.1401 30.9024C39.5895 31.5296 39.3267 32.2612 39.4269 33.1105C39.5144 33.79 40.1401 34.1427 40.7408 33.8946C41.0035 33.7769 41.2164 33.594 41.3789 33.3458C41.7043 32.8492 41.8545 32.3004 41.8795 31.7125Z" fill="#EDEDED"/>
<path d="M31.5198 31.1094H29.7303C29.7178 31.0571 29.7178 31.0049 29.7053 30.9526C29.6677 30.6521 29.53 30.5083 29.2422 30.4823C29.067 30.4691 28.8918 30.4691 28.7167 30.4953C28.5289 30.5214 28.4413 30.6521 28.4288 30.8089C28.4163 30.9918 28.5289 31.0964 28.6791 31.1486C29.0045 31.2531 29.3299 31.3446 29.6427 31.4491C29.8178 31.5014 29.993 31.5537 30.1683 31.619C31.1944 31.9978 31.5198 32.7426 31.1694 33.8271C30.9316 34.5457 30.4561 35.0422 29.7553 35.2905C28.9169 35.5779 28.0534 35.6171 27.2024 35.3558C26.2013 35.0552 25.7133 34.0753 26.0136 33.017H27.8407C27.8407 33.0692 27.8407 33.1215 27.8281 33.1737C27.7781 33.5919 27.9408 33.8532 28.3287 33.9578C28.604 34.0361 28.8668 34.01 29.117 33.8663C29.2672 33.7879 29.3673 33.6442 29.3673 33.4612C29.3673 33.2784 29.2672 33.1477 29.1046 33.0954C28.8668 33.0039 28.6291 32.9517 28.3913 32.8733C28.1159 32.7818 27.8407 32.7034 27.5778 32.6119C26.6643 32.2853 26.4015 31.5405 26.6268 30.6521C26.827 29.855 27.3275 29.3455 28.1034 29.1626C28.8418 28.9927 29.5926 28.9927 30.331 29.1626C31.2194 29.3716 31.7325 30.2078 31.5198 31.1094Z" fill="#EDEDED"/>
<path d="M4.47408 31.8462C5.17487 33.0221 5.87565 34.1719 6.58894 35.3609C6.52637 35.3609 6.47631 35.374 6.42626 35.374C5.81308 35.374 5.1999 35.374 4.5867 35.374C4.47408 35.374 4.41151 35.3347 4.36145 35.2302C4.01107 34.5378 3.66068 33.8583 3.29777 33.1659C3.27275 33.1136 3.2352 33.0613 3.21018 33.0091C3.02246 33.1789 2.83475 33.3357 2.65955 33.5055C2.62201 33.5317 2.6095 33.597 2.59699 33.6492C2.47185 34.2241 2.35922 34.7991 2.2466 35.374H0.394531C0.457101 35.0734 0.507157 34.7729 0.569727 34.4855C0.907604 32.7999 1.25799 31.1276 1.59587 29.442C1.6209 29.2984 1.67096 29.2461 1.82112 29.2461C2.30917 29.2591 2.79721 29.2461 3.28526 29.2461H3.47297C3.34783 29.8602 3.22269 30.4481 3.09754 31.0884C3.16012 31.0361 3.19766 31.0099 3.22269 30.9707C3.74827 30.4351 4.27386 29.8863 4.79944 29.3506C4.8495 29.2984 4.92458 29.2591 4.98715 29.2591C5.75051 29.2461 6.50134 29.2591 7.2647 29.2591C7.28973 29.2591 7.30224 29.2591 7.35229 29.2722C6.3762 30.1215 5.42515 30.9838 4.47408 31.8462Z" fill="#EDEDED"/>
<path d="M33.1571 35.3552H31.3301C31.4177 34.9371 31.4928 34.5451 31.5803 34.14C31.8931 32.5852 32.2185 31.0173 32.5314 29.4624C32.5815 29.2011 32.5188 29.2273 32.8067 29.2273C33.6577 29.2273 34.4961 29.2273 35.347 29.2273C35.5723 29.2273 35.81 29.2403 36.0353 29.2796C36.7986 29.4363 37.2492 29.9459 37.3492 30.769C37.4619 31.7359 37.1365 32.533 36.3607 33.0948C36.0102 33.3561 35.5848 33.4214 35.1593 33.4344C34.6838 33.4476 34.2083 33.4476 33.7453 33.4344C33.5951 33.4344 33.545 33.4867 33.52 33.6304C33.3948 34.2054 33.2697 34.7672 33.1571 35.3552ZM34.1082 30.7037C34.0205 31.1218 33.9455 31.5138 33.8578 31.9319C34.1456 31.9319 34.3959 31.9319 34.6462 31.9319C34.7088 31.9319 34.7839 31.9319 34.8464 31.9319C35.1468 31.9057 35.3721 31.7621 35.4721 31.4484C35.5973 31.0696 35.4346 30.743 35.0842 30.7037C34.7713 30.6907 34.4461 30.7037 34.1082 30.7037Z" fill="#EDEDED"/>
<path d="M51.6542 30.7814H49.9648C50.0774 30.2457 50.1776 29.7493 50.2777 29.2266H55.3959C55.2958 29.7231 55.1957 30.2196 55.0956 30.703C55.083 30.7422 55.008 30.7814 54.9579 30.7814C54.5324 30.7814 54.1194 30.7945 53.694 30.7814C53.5438 30.7814 53.4937 30.8337 53.4688 30.9775C53.181 32.4277 52.8805 33.8911 52.5802 35.3545H50.7156C51.0285 33.8389 51.3413 32.3232 51.6542 30.7814Z" fill="#EDEDED"/>
<defs>
<linearGradient id="paint0_linear_10277_1956" x1="13.0134" y1="11.8798" x2="42.4983" y2="11.8798" gradientUnits="userSpaceOnUse">
<stop stop-color="#EDB32D"/>
<stop offset="0.0111557" stop-color="#EDB32D"/>
<stop offset="0.0809098" stop-color="#EEB532"/>
<stop offset="0.1692" stop-color="#F1BB42"/>
<stop offset="0.2673" stop-color="#F7C55C"/>
<stop offset="0.3721" stop-color="#FED380"/>
<stop offset="0.3882" stop-color="#FFD586"/>
<stop offset="0.3954" stop-color="#FCD282"/>
<stop offset="0.4772" stop-color="#E2B65D"/>
<stop offset="0.5533" stop-color="#CFA243"/>
<stop offset="0.6209" stop-color="#C39533"/>
<stop offset="0.6732" stop-color="#BF912D"/>
<stop offset="0.7322" stop-color="#C9992E"/>
<stop offset="0.8306" stop-color="#E4AE32"/>
<stop offset="0.8706" stop-color="#EDBB4D"/>
<stop offset="0.9519" stop-color="#FFD481"/>
<stop offset="1" stop-color="#FFD481"/>
</linearGradient>
</defs>
</svg>
