<svg width="128" height="38" viewBox="0 0 128 38" fill="none" xmlns="http://www.w3.org/2000/svg">
<path fill-rule="evenodd" clip-rule="evenodd" d="M109 0C119.493 0 128 8.50659 128 19C128 29.4934 119.493 38 109 38L19 38C8.50659 38 0 29.4934 0 19C0 8.50659 8.50659 0 19 0L109 0ZM49.4137 16.7717H47.4215C47.3647 16.445 47.2599 16.1555 47.1072 15.9034C46.9545 15.6477 46.7646 15.4311 46.5373 15.2536C46.31 15.076 46.0508 14.9428 45.7596 14.854C45.4719 14.7617 45.1612 14.7156 44.8274 14.7156C44.2344 14.7156 43.7088 14.8647 43.2507 15.163C42.7926 15.4577 42.434 15.891 42.1747 16.4627C41.9155 17.0309 41.7859 17.7251 41.7859 18.5455C41.7859 19.38 41.9155 20.0831 42.1747 20.6548C42.4375 21.223 42.7962 21.6527 43.2507 21.9439C43.7088 22.2315 44.2326 22.3754 44.8221 22.3754C45.1488 22.3754 45.4542 22.3327 45.7383 22.2475C46.0259 22.1587 46.2834 22.0291 46.5107 21.8587C46.7415 21.6882 46.935 21.4787 47.0913 21.2301C47.2511 20.9815 47.3612 20.6974 47.4215 20.3778L49.4137 20.3885C49.3391 20.907 49.1776 21.3935 48.929 21.848C48.684 22.3026 48.3626 22.7038 47.9648 23.0518C47.5671 23.3963 47.1019 23.6662 46.5692 23.8615C46.0366 24.0533 45.4453 24.1491 44.7955 24.1491C43.8366 24.1491 42.9808 23.9272 42.228 23.4833C41.4751 23.0394 40.8821 22.3984 40.4489 21.5604C40.0156 20.7223 39.799 19.7173 39.799 18.5455C39.799 17.37 40.0174 16.3651 40.4542 15.5305C40.891 14.6925 41.4858 14.0515 42.2386 13.6076C42.9915 13.1637 43.8438 12.9418 44.7955 12.9418C45.4027 12.9418 45.9673 13.027 46.4893 13.1974C47.0114 13.3679 47.4766 13.6183 47.8849 13.9485C48.2933 14.2752 48.6289 14.6765 48.8917 15.1523C49.158 15.6246 49.332 16.1644 49.4137 16.7717ZM53.0665 19.206V24H51.1382V13.0909H53.0239V17.2085H53.1198C53.3115 16.7468 53.608 16.3828 54.0093 16.1165C54.4142 15.8466 54.9291 15.7116 55.5541 15.7116C56.1222 15.7116 56.6176 15.8306 57.0402 16.0685C57.4628 16.3065 57.7895 16.6545 58.0203 17.1126C58.2547 17.5707 58.3719 18.13 58.3719 18.7905V24H56.4436V19.0888C56.4436 18.5384 56.3016 18.1104 56.0175 17.805C55.7369 17.4961 55.3428 17.3416 54.835 17.3416C54.494 17.3416 54.1887 17.4162 53.9188 17.5653C53.6524 17.7109 53.4429 17.9222 53.2902 18.1992C53.1411 18.4762 53.0665 18.8118 53.0665 19.206ZM62.6918 24.1651C62.1734 24.1651 61.7064 24.0728 61.2909 23.8881C60.879 23.6999 60.5523 23.4229 60.3108 23.0572C60.0729 22.6914 59.9539 22.2404 59.9539 21.7042C59.9539 21.2425 60.0392 20.8608 60.2096 20.5589C60.3801 20.2571 60.6127 20.0156 60.9074 19.8345C61.2021 19.6534 61.5342 19.5167 61.9035 19.4244C62.2764 19.3285 62.6617 19.2592 63.0594 19.2166C63.5388 19.1669 63.9276 19.1225 64.2259 19.0835C64.5242 19.0408 64.7409 18.9769 64.8758 18.8917C65.0143 18.8029 65.0835 18.6662 65.0835 18.4815V18.4496C65.0835 18.0483 64.9646 17.7376 64.7267 17.5174C64.4887 17.2972 64.146 17.1871 63.6986 17.1871C63.2263 17.1871 62.8517 17.2901 62.5747 17.4961C62.3012 17.7021 62.1166 17.9453 62.0207 18.2259L60.2203 17.9702C60.3623 17.473 60.5967 17.0575 60.9234 16.7237C61.2501 16.3864 61.6496 16.1342 62.1219 15.9673C62.5942 15.7969 63.1162 15.7116 63.6879 15.7116C64.0821 15.7116 64.4745 15.7578 64.8651 15.8501C65.2558 15.9425 65.6127 16.0952 65.9358 16.3082C66.259 16.5178 66.5182 16.8036 66.7135 17.1658C66.9124 17.5281 67.0118 17.9808 67.0118 18.5241V24H65.1581V22.8761H65.0942C64.977 23.1033 64.8119 23.3164 64.5988 23.5153C64.3893 23.7106 64.1247 23.8686 63.8051 23.9893C63.4891 24.1065 63.118 24.1651 62.6918 24.1651ZM63.1926 22.7482C63.5796 22.7482 63.9152 22.6719 64.1993 22.5192C64.4834 22.3629 64.7018 22.157 64.8545 21.9013C65.0107 21.6456 65.0889 21.3668 65.0889 21.065V20.1009C65.0285 20.1506 64.9255 20.1967 64.7799 20.2393C64.6379 20.282 64.4781 20.3192 64.3005 20.3512C64.123 20.3832 63.9472 20.4116 63.7732 20.4364C63.5992 20.4613 63.4482 20.4826 63.3204 20.5004C63.0328 20.5394 62.7753 20.6033 62.548 20.6921C62.3208 20.7809 62.1414 20.9052 62.01 21.065C61.8786 21.2212 61.8129 21.4237 61.8129 21.6722C61.8129 22.0273 61.9426 22.2955 62.2018 22.4766C62.461 22.6577 62.7913 22.7482 63.1926 22.7482ZM73.0363 15.8182V17.3097H71.4223V21.5391C71.4223 21.7983 71.4614 21.9972 71.5395 22.1357C71.6212 22.2706 71.7277 22.3629 71.8591 22.4126C71.9905 22.4624 72.1361 22.4872 72.2959 22.4872C72.4166 22.4872 72.5267 22.4783 72.6262 22.4606C72.7291 22.4428 72.8073 22.4268 72.8605 22.4126L73.1855 23.9201C73.0825 23.9556 72.9351 23.9947 72.7433 24.0373C72.5551 24.0799 72.3243 24.1048 72.0509 24.1119C71.5679 24.1261 71.1329 24.0533 70.7458 23.8935C70.3588 23.7301 70.0516 23.478 69.8243 23.1371C69.6006 22.7962 69.4905 22.37 69.4941 21.8587V17.3097H68.3328V15.8182H69.4941V13.858H71.4223V15.8182H73.0363ZM80.2979 19.206V24H78.3697V15.8182H80.2127V17.2085H80.3086C80.4968 16.7504 80.7969 16.3864 81.2088 16.1165C81.6243 15.8466 82.1374 15.7116 82.7482 15.7116C83.3129 15.7116 83.8047 15.8324 84.2237 16.0739C84.6463 16.3153 84.973 16.6651 85.2038 17.1232C85.4382 17.5813 85.5536 18.1371 85.5501 18.7905V24H83.6218V19.0888C83.6218 18.5419 83.4798 18.114 83.1957 17.805C82.9151 17.4961 82.5263 17.3416 82.0291 17.3416C81.6918 17.3416 81.3917 17.4162 81.1289 17.5653C80.8697 17.7109 80.6655 17.9222 80.5163 18.1992C80.3707 18.4762 80.2979 18.8118 80.2979 19.206ZM91.0685 27.2386C90.3761 27.2386 89.7812 27.1445 89.2841 26.9563C88.7869 26.7717 88.3874 26.5231 88.0856 26.2106C87.7837 25.8981 87.5742 25.5518 87.457 25.1719L89.1935 24.7511C89.2717 24.9109 89.3853 25.0689 89.5344 25.2251C89.6836 25.3849 89.8842 25.5163 90.1364 25.6193C90.392 25.7259 90.7134 25.7791 91.1005 25.7791C91.6474 25.7791 92.1001 25.646 92.4588 25.3796C92.8175 25.1168 92.9968 24.6836 92.9968 24.0799V22.5298H92.9009C92.8015 22.7287 92.6559 22.9329 92.4641 23.1424C92.2759 23.3519 92.0256 23.5277 91.7131 23.6697C91.4041 23.8118 91.0153 23.8828 90.5465 23.8828C89.918 23.8828 89.348 23.7354 88.8366 23.4407C88.3288 23.1424 87.924 22.6985 87.6222 22.109C87.3239 21.516 87.1747 20.7738 87.1747 19.8825C87.1747 18.984 87.3239 18.2259 87.6222 17.608C87.924 16.9865 88.3306 16.516 88.842 16.1964C89.3533 15.8732 89.9233 15.7116 90.5518 15.7116C91.0312 15.7116 91.4254 15.7933 91.7344 15.9567C92.0469 16.1165 92.2955 16.31 92.4801 16.5373C92.6648 16.761 92.805 16.9723 92.9009 17.1712H93.0075V15.8182H94.9091V24.1332C94.9091 24.8327 94.7422 25.4116 94.4084 25.8697C94.0746 26.3278 93.6183 26.6705 93.0394 26.8977C92.4606 27.125 91.8036 27.2386 91.0685 27.2386ZM91.0845 22.37C91.4929 22.37 91.8409 22.2706 92.1286 22.0717C92.4162 21.8729 92.6346 21.587 92.7837 21.2141C92.9329 20.8413 93.0075 20.3938 93.0075 19.8718C93.0075 19.3569 92.9329 18.9059 92.7837 18.5188C92.6381 18.1317 92.4215 17.8317 92.1339 17.6186C91.8498 17.402 91.5 17.2937 91.0845 17.2937C90.6548 17.2937 90.2962 17.4055 90.0085 17.6293C89.7209 17.853 89.5043 18.1602 89.3587 18.5508C89.2131 18.9379 89.1403 19.3782 89.1403 19.8718C89.1403 20.3725 89.2131 20.8111 89.3587 21.1875C89.5078 21.5604 89.7262 21.8516 90.0139 22.0611C90.305 22.267 90.6619 22.37 91.0845 22.37ZM99.2397 24.1651C98.7212 24.1651 98.2543 24.0728 97.8388 23.8881C97.4268 23.6999 97.1001 23.4229 96.8587 23.0572C96.6207 22.6914 96.5018 22.2404 96.5018 21.7042C96.5018 21.2425 96.587 20.8608 96.7575 20.5589C96.9279 20.2571 97.1605 20.0156 97.4553 19.8345C97.75 19.6534 98.082 19.5167 98.4513 19.4244C98.8242 19.3285 99.2095 19.2592 99.6072 19.2166C100.087 19.1669 100.475 19.1225 100.774 19.0835C101.072 19.0408 101.289 18.9769 101.424 18.8917C101.562 18.8029 101.631 18.6662 101.631 18.4815V18.4496C101.631 18.0483 101.512 17.7376 101.275 17.5174C101.037 17.2972 100.694 17.1871 100.246 17.1871C99.7741 17.1871 99.3995 17.2901 99.1225 17.4961C98.8491 17.7021 98.6644 17.9453 98.5685 18.2259L96.7681 17.9702C96.9102 17.473 97.1445 17.0575 97.4712 16.7237C97.7979 16.3864 98.1974 16.1342 98.6697 15.9673C99.142 15.7969 99.6641 15.7116 100.236 15.7116C100.63 15.7116 101.022 15.7578 101.413 15.8501C101.804 15.9425 102.161 16.0952 102.484 16.3082C102.807 16.5178 103.066 16.8036 103.261 17.1658C103.46 17.5281 103.56 17.9808 103.56 18.5241V24H101.706V22.8761H101.642C101.525 23.1033 101.36 23.3164 101.147 23.5153C100.937 23.7106 100.673 23.8686 100.353 23.9893C100.037 24.1065 99.6658 24.1651 99.2397 24.1651ZM99.7404 22.7482C100.127 22.7482 100.463 22.6719 100.747 22.5192C101.031 22.3629 101.25 22.157 101.402 21.9013C101.559 21.6456 101.637 21.3668 101.637 21.065V20.1009C101.576 20.1506 101.473 20.1967 101.328 20.2393C101.186 20.282 101.026 20.3192 100.848 20.3512C100.671 20.3832 100.495 20.4116 100.321 20.4364C100.147 20.4613 99.9961 20.4826 99.8683 20.5004C99.5806 20.5394 99.3232 20.6033 99.0959 20.6921C98.8686 20.7809 98.6893 20.9052 98.5579 21.065C98.4265 21.2212 98.3608 21.4237 98.3608 21.6722C98.3608 22.0273 98.4904 22.2955 98.7496 22.4766C99.0089 22.6577 99.3391 22.7482 99.7404 22.7482ZM106.404 27.0682C106.141 27.0682 105.898 27.0469 105.674 27.0043C105.454 26.9652 105.278 26.919 105.147 26.8658L105.594 25.3636C105.875 25.4453 106.125 25.4844 106.346 25.4808C106.566 25.4773 106.759 25.408 106.926 25.2731C107.097 25.1417 107.24 24.9215 107.358 24.6126L107.523 24.1705L104.556 15.8182H106.601L108.487 21.9972H108.572L110.463 15.8182H112.514L109.238 24.9908C109.085 25.424 108.883 25.7951 108.631 26.104C108.379 26.4165 108.07 26.6545 107.704 26.8178C107.342 26.9847 106.908 27.0682 106.404 27.0682ZM19.4104 13.4102C19.6655 13.1402 19.9988 13 20.3333 13L29.6667 13C30.0012 13 30.3345 13.1402 30.5896 13.4102C30.8464 13.6822 31 14.0627 31 14.4706V21.0588C31 21.4667 30.8464 21.8472 30.5896 22.1192C30.3345 22.3892 30.0013 22.5294 29.6667 22.5294H25.7778C25.5879 22.5294 25.4019 22.5835 25.2415 22.6853L22.8889 24.18V23.5294C22.8889 22.9771 22.4412 22.5294 21.8889 22.5294H20.3333C19.9988 22.5294 19.6655 22.3892 19.4104 22.1192C19.1536 21.8472 19 21.4667 19 21.0588V14.4706C19 14.0627 19.1536 13.6822 19.4104 13.4102ZM20.3333 11C19.4302 11 18.5765 11.3804 17.9564 12.037C17.3381 12.6917 17 13.568 17 14.4706V21.0588C17 21.9614 17.3381 22.8377 17.9564 23.4924C18.5765 24.149 19.4302 24.5294 20.3333 24.5294H20.8889V26C20.8889 26.3648 21.0876 26.7007 21.4073 26.8764C21.7271 27.0521 22.1172 27.0397 22.4251 26.8441L26.0686 24.5294H29.6667C30.5698 24.5294 31.4235 24.149 32.0436 23.4924C32.6619 22.8377 33 21.9614 33 21.0588V14.4706C33 13.568 32.6619 12.6917 32.0436 12.037C31.4235 11.3804 30.5698 11 29.6667 11L20.3333 11Z" fill="#0047CC"/>
</svg>
